<?xml version="1.0" encoding="UTF-8" standalone="no"?>
<svg width="125px" height="124px" viewBox="0 0 125 124" version="1.1" xmlns="http://www.w3.org/2000/svg" xmlns:xlink="http://www.w3.org/1999/xlink" xmlns:sketch="http://www.bohemiancoding.com/sketch/ns">
    <!-- Generator: Sketch 3.3.2 (12043) - http://www.bohemiancoding.com/sketch -->
    <title>Imported Layers</title>
    <desc>Created with Sketch.</desc>
    <defs></defs>
    <g id="Empty-Stage" stroke="none" stroke-width="1" fill="none" fill-rule="evenodd" sketch:type="MSPage">
        <g id="Search---Loading" sketch:type="MSArtboardGroup" transform="translate(-857.000000, -69.000000)">
            <g id="user-popup-copy" sketch:type="MSLayerGroup" transform="translate(719.000000, 45.000000)">
                <g id="Imported-Layers" transform="translate(145.000000, 30.000000)" sketch:type="MSShapeGroup">
                    <path d="M109.914558,54.9365581 C109.914558,85.1492093 85.421907,109.641349 55.2092558,109.641349 C24.9971163,109.641349 0.504465116,85.1492093 0.504465116,54.9365581 C0.504465116,24.723907 24.9971163,0.231255814 55.2092558,0.231255814 C85.421907,0.231255814 109.914558,24.723907 109.914558,54.9365581" id="Fill-1" fill="#D4D6DB"></path>
                    <path d="M43.296,108.340279 L43.3389767,108.390419 C47.0989302,109.206977 51.0011163,109.641349 55.0051163,109.641349 L55.105907,109.641349 C51.0507442,109.633674 47.0989302,109.184977 43.296,108.340279" id="Fill-2" fill="#E5E5E5"></path>
                    <path d="M88.0537209,27.2533953 L80.5946977,76.1675814 C80.5813953,76.2540465 80.5634884,76.3384651 80.5414884,76.4208372 L80.498,76.7053023 C80.3240465,77.8452093 79.3309767,78.6694419 78.21,78.6694419 C78.0953953,78.6694419 77.9797674,78.6607442 77.8631163,78.6428372 L70.5708837,77.5310698 L82.152093,89.1122791 C83.8532558,90.8129302 83.8532558,93.5716279 82.152093,95.2727907 C81.2997209,96.1246512 80.185907,96.549814 79.0700465,96.549814 C77.954186,96.549814 76.8403721,96.1246512 75.988,95.2727907 L63.509907,82.7936744 C63.4986512,82.8422791 63.4853488,82.8903721 63.4710233,82.9374419 C63.399907,84.1520465 62.3817674,85.1144186 61.1625581,85.1144186 C61.1441395,85.1144186 61.1257209,85.1144186 61.1073023,85.113907 L22.7807442,84.1919535 C22.7004186,84.189907 22.6211163,84.1837674 22.5433488,84.1740465 L43.296,108.340279 C47.0989302,109.184977 51.0507442,109.633674 55.105907,109.641349 C84.7624186,109.586605 108.883628,85.9325116 109.688419,56.4571163 L88.0537209,27.2533953" id="Fill-3" fill="#BEC0C5"></path>
                    <path d="M86.0373953,25.0487907 L48.1354884,19.2714884 C46.877907,19.0796279 45.6934884,19.9524651 45.5021395,21.2085116 L44.0931163,30.4474884 L35.0577674,30.2586977 L24.0843721,29.9952093 C22.8129767,29.9650233 21.7487907,30.9806047 21.718093,32.2509767 L21.4387442,45.8986512 C18.5301395,53.5546512 19.2264651,57.7991163 20.8646977,66.1954419 L20.5254884,81.8246512 C20.4947907,83.0950233 21.5093488,84.1612558 22.7807442,84.1919535 L61.1073023,85.113907 C62.3776744,85.144093 63.443907,84.128 63.4746047,82.8576279 L63.4766512,82.7604186 L75.988,95.2727907 C76.8403721,96.1246512 77.954186,96.549814 79.0700465,96.549814 C80.185907,96.549814 81.2997209,96.1246512 82.152093,95.2727907 C83.8532558,93.5716279 83.8532558,90.8129302 82.152093,89.1122791 L70.5708837,77.5310698 L77.8631163,78.6428372 C79.1196744,78.834186 80.3066512,77.9618605 80.498,76.7053023 L87.9733953,27.6831628 C88.1652558,26.4250698 87.2934419,25.2401395 86.0373953,25.0487907" id="Fill-4" fill="#9EA2AA"></path>
                    <path d="M86.134093,24.5110698 L48.232186,18.7337674 C46.9746047,18.541907 45.790186,19.4147442 45.5988372,20.6707907 L38.1244651,69.691907 C37.9326047,70.9484651 38.8033953,72.1349302 40.0604651,72.3262791 L77.959814,78.1051163 C79.2163721,78.2964651 80.4028372,77.4236279 80.5946977,76.1675814 L88.070093,27.1454419 C88.2619535,25.8873488 87.3901395,24.7024186 86.134093,24.5110698" id="Fill-5" fill="#F8F9FC"></path>
                    <path d="M80.2293953,44.2010698 L48.0004186,39.2868837 L48.5192093,35.8855814 L80.748186,40.7997674 L80.2293953,44.2010698" id="Fill-6" fill="#D4D6DB"></path>
                    <path d="M78.9523721,52.5764186 L46.7233953,47.6622326 L47.2416744,44.2614419 L79.4711628,49.1756279 L78.9523721,52.5764186" id="Fill-7" fill="#D4D6DB"></path>
                    <path d="M77.6758605,60.9512558 L45.4463721,56.0370698 L45.9651628,52.6362791 L78.1941395,57.5504651 L77.6758605,60.9512558" id="Fill-8" fill="#D4D6DB"></path>
                    <path d="M35.1534419,29.7209767 L35.1534419,29.7209767 L44.1708837,29.9373953 L44.1754884,29.9092558 L35.1534419,29.7209767" id="Fill-9" fill="#BFC0C5"></path>
                    <path d="M63.7247907,75.9347907 L63.7227442,76.0146047 C64.0624651,76.0243256 64.2860465,76.0309767 64.3740465,76.0335349 L64.3755814,76.0340465 L63.7247907,75.9347907 M44.1754884,29.9092558 L44.1708837,29.9373953 L44.1857209,29.937907 L44.189814,29.9097674 L44.1754884,29.9092558" id="Fill-10" fill="#8E9199"></path>
                    <path d="M67.9569767,59.4690698 C67.5046977,63.3303256 66.1376279,67.1046047 63.8567907,70.4414419 L63.7247907,75.9347907 L64.3755814,76.0340465 L68.2966977,76.4300465 L68.8308372,59.6026047 L67.9569767,59.4690698 M67.4417674,50.8215349 C67.852093,52.5273023 68.0777209,54.2688837 68.1186512,56.0140465 L68.9408372,56.1393953 L69.1014884,51.0742791 L67.4417674,50.8215349 M64.5454419,41.8097209 L64.4993953,43.7339535 C65.1783256,44.8375349 65.7615814,45.9835814 66.250186,47.159814 L69.2114884,47.6110698 L69.3721395,42.5459535 L64.5454419,41.8097209 M44.7403256,26.2992093 L44.7403256,26.2997209 L44.2588837,29.9107907 L44.189814,29.9097674 L44.1857209,29.937907 L62.5096744,30.3773953 C63.7800465,30.408093 64.7951163,31.4727907 64.7644186,32.7446977 L64.6293488,38.341907 L69.4821395,39.0822326 L69.7804186,29.4897209 C69.8218605,28.1620465 68.8165116,27.0441395 67.5451163,27.0047442 L44.7403256,26.2992093" id="Fill-11" fill="#DEE0E2"></path>
                    <path d="M64.6293488,38.341907 L64.5454419,41.8097209 L69.3721395,42.5459535 L69.4811163,39.1062791 L69.4821395,39.0822326 L64.6293488,38.341907" id="Fill-12" fill="#BFC0C5"></path>
                    <path d="M66.250186,47.159814 C66.7454419,48.3534419 67.1429767,49.5777674 67.4417674,50.8215349 L69.1014884,51.0742791 L69.2114884,47.6110698 L66.250186,47.159814" id="Fill-13" fill="#BFC0C5"></path>
                    <path d="M68.1186512,56.0140465 C68.1452558,57.1672558 68.0915349,58.3225116 67.9569767,59.4690698 L68.8308372,59.6026047 L68.9408372,56.1393953 L68.1186512,56.0140465" id="Fill-14" fill="#BFC0C5"></path>
                    <path d="M62.5096744,30.3773953 L24.1810698,29.4574884 C22.9091628,29.4267907 21.8454884,30.4428837 21.8147907,31.7132558 L20.622186,81.2869302 C20.592,82.5573023 21.6060465,83.6235349 22.8769302,83.6542326 L61.2034884,84.5756744 C62.4738605,84.6063721 63.5406047,83.5902791 63.5713023,82.319907 L64.7644186,32.7446977 C64.7951163,31.4727907 63.7800465,30.408093 62.5096744,30.3773953" id="Fill-15" fill="#F8F9FC"></path>
                    <path d="M60.9251628,39.2147442 C51.3275349,29.6109767 35.7653488,29.6109767 26.1636279,39.212186 C16.5649767,48.8093023 16.5649767,64.3735349 26.1656744,73.9726977 C35.7653488,83.5718605 51.3275349,83.5718605 60.9251628,73.9726977 C70.5248372,64.3735349 70.5258605,48.8093023 60.9251628,39.2147442 M56.5364186,69.5793488 C49.3582791,76.7549302 37.7274419,76.7528837 30.5549302,69.5824186 C23.3803721,62.4078605 23.3803721,50.7775349 30.558,43.6004186 C37.7274419,36.4273953 49.3582791,36.4273953 56.5348837,43.6029767 C63.7063721,50.7729302 63.7073953,62.4078605 56.5364186,69.5793488" id="Fill-16" fill="#9EA2AA"></path>
                    <path d="M60.2895504,73.3222481 C59.3466202,74.2651783 58.3305271,75.0888992 57.2847597,75.8466202 L61.3204806,79.8823411 L67.4825271,73.7213178 L63.3495969,69.587876 C62.4675504,70.9058295 61.4529922,72.1593178 60.2895504,73.3222481" id="Fill-17" fill="#9EA2AA"></path>
                    <path d="M82.4246202,88.6634109 L67.4825271,73.7213178 L61.3204806,79.8823411 L76.2605271,94.8239225 C77.1128992,95.6757829 78.2267132,96.1004341 79.3425736,96.1004341 C80.4579225,96.1004341 81.5722481,95.6757829 82.4246202,94.8239225 C84.1257829,93.1227597 84.1257829,90.364062 82.4246202,88.6634109" id="Fill-18" fill="#585F6A"></path>
                    <path d="M43.6075814,38.3301395 C38.860186,38.3301395 34.1143256,40.1402791 30.4940465,43.7605581 C28.9576279,45.2974884 27.7466047,47.0365116 26.8614884,48.8916744 C23.7277674,55.6814884 24.9592558,63.9867442 30.5549302,69.5824186 C34.1414419,73.1673953 38.8417674,74.9606512 43.5431163,74.9606512 C48.2449767,74.9606512 52.9473488,73.1668837 56.5364186,69.5793488 C63.7073953,62.4078605 63.7063721,50.7729302 56.5348837,43.6029767 C56.1460465,43.2141395 55.7444186,42.8467907 55.3305116,42.499907 C51.9271628,39.7197209 47.7676279,38.3301395 43.6075814,38.3301395" id="Fill-19" fill="#DEE0E2"></path>
                    <path d="M55.3305116,42.499907 C55.7444186,42.8467907 56.1460465,43.2141395 56.5348837,43.6029767 C63.7063721,50.7729302 63.7073953,62.4078605 56.5364186,69.5793488 C52.9473488,73.1668837 48.2449767,74.9606512 43.5431163,74.9606512 C38.8417674,74.9606512 34.1414419,73.1673953 30.5549302,69.5824186 C24.9592558,63.9867442 23.7277674,55.6814884 26.8614884,48.8916744 C23.5742791,55.783814 24.7853023,64.2819535 30.4940465,69.9937674 C34.113814,73.6125116 38.8581395,75.4216279 43.6045116,75.4216279 C48.351907,75.4216279 53.1013488,73.6104651 56.7246977,69.9881395 C63.9652558,62.7445116 63.9652558,51.0021395 56.7246977,43.7605581 C56.2770233,43.3128837 55.8109302,42.8923256 55.3305116,42.499907" id="Fill-20" fill="#8E9199"></path>
                    <path d="M56.9119535,56.3645116 C56.0646977,56.3645116 55.3796279,55.6799535 55.3796279,54.8367907 C55.3796279,49.6893023 51.194,45.4985581 46.050093,45.4985581 C45.2038605,45.4985581 44.5193023,44.8129767 44.5193023,43.9667442 C44.5193023,43.124093 45.2038605,42.4395349 46.050093,42.4395349 C52.8823721,42.4395349 58.4432558,47.999907 58.4432558,54.8367907 C58.4432558,55.6799535 57.7586977,56.3645116 56.9119535,56.3645116" id="Fill-21" fill="#F8F9FC"></path>
                    <path d="M49.3025116,61.4536744 C49.1623256,65.1512093 46.0511163,68.0347442 42.3535814,67.8945581 C38.6565581,67.7543721 35.7725116,64.6431628 35.9126977,60.9456279 L49.3025116,61.4536744" id="Fill-22" fill="#9EA2AA"></path>
                    <path d="M50.3605581,57.217907 L48.3994884,57.1432093 C47.7553488,57.1186512 47.2524186,56.5768372 47.2769767,55.932186 L47.4519535,51.3208837 C47.4765116,50.6762326 48.0188372,50.173814 48.6629767,50.1983721 L50.6240465,50.2725581 C51.2686977,50.2971163 51.7711163,50.8394419 51.7465581,51.484093 L51.572093,56.0948837 C51.5475349,56.7395349 51.0052093,57.2419535 50.3605581,57.217907" id="Fill-23" fill="#9EA2AA"></path>
                    <path d="M35.1785116,56.641814 L37.1395814,56.716 C37.7842326,56.7405581 38.3265581,56.2381395 38.3506047,55.5934884 L38.5255814,50.982186 C38.5501395,50.3380465 38.0472093,49.7957209 37.4030698,49.7711628 L35.442,49.6969767 C34.7973488,49.6724186 34.2555349,50.1748372 34.2309767,50.8194884 L34.056,55.4307907 C34.0314419,56.0749302 34.5343721,56.6172558 35.1785116,56.641814" id="Fill-24" fill="#9EA2AA"></path>
                </g>
            </g>
        </g>
    </g>
</svg>